<?xml version="1.0" encoding="utf-8"?>
<!-- Generator: Adobe Illustrator 19.0.0, SVG Export Plug-In . SVG Version: 6.00 Build 0)  -->
<svg version="1.1" id="doll" xmlns="http://www.w3.org/2000/svg" xmlns:xlink="http://www.w3.org/1999/xlink" x="0px" y="0px" height="600px"
	 viewBox="247.3 -7 455 790.7" style="enable-background:new 247.3 -7 455 790.7;" xml:space="preserve">
<style type="text/css">
	.st0{fill:none;stroke:#000000;stroke-miterlimit:10;}
	.st1{fill:#FAB698;}
	.st2{fill:none;}
	.st3{font-family:'ArialMT';}
	.st4{font-size:35px;}
	.st5{fill:#FFFFFF;stroke:#000000;stroke-miterlimit:10;}
	.st6{fill:#FFFFFF;}
</style>
<g id="Layer_1_1_">
	
		
	<path class="st0" d="M399-4c0.6,13.6,4.2,35.6-0.5,69c-6.5,46.9-22.1,107.9-21.5,127c2.7,90.9,38.7,198.3,37.3,236.3
		c-0.4,11.5,1.7,70.1,4,86c4,27.6,13.3,50.4,19.7,72.7c6.3,22.1,15.1,57.2,23,82.9"/>
	<path class="st0" d="M479.7,227.7c1.5,26.7-1.2,39.2-1.2,67.3c0,22.2-5.9,73.5-1.5,97c6.7,35.7,3.6,31.1,4.7,51
		c0.7,12.7-4.7,32,2.3,56c7.3,24.9,4.7,57.2,5,75c0.3,18-1.9,38.7-1.3,55c0.5,14.3,0.4,28.4,1.8,43.4"/>
	<path class="st0" d="M479.7,227.7c7.4,22.2,10.4,59.1,13.3,81.3s9.3,50.5,12.5,72.5c3.3,22.7,0.3,44.8,0.8,56.8
		c0.7,15.3,4.8,33.7,2.2,57.7c-3.6,32.4-7.5,30.7-7.5,51c0,31.1,12.7,85.5,12.7,116.7"/>
	<path class="st0" d="M557.7-3.1c0,17.7-5.6,33.9,0.1,68.8c9.9,61.7,31.2,148.9,30.2,179.2c-1.5,54.9-8,72-12,126
		c-1.4,19,1.2,58.7,1,80c-0.1,11.9-4.6,17.7-6,40c-1.4,23-0.8,44.4-2,58c-3.1,46.4-21,102.8-25.3,146.7"/>
	<ellipse class="st0" cx="476.6" cy="98.7" rx="2" ry="5.9"/>
	<path class="st0" d="M577.7,142.5"/>
	<path class="st0" d="M513.7,663.7c0,9.2,3.3,39,0,47.4c-3.3,9.2-4,6-5.4,16.7c-1.8,13.9,11.8,12.7,19.9,14c0,0,7.4-1.2,8.8-0.9
		c10.9,2,19.8,20.9,30,30c1.2,1.1,3.2,4.1,6.1,4.6c2.9,0.6,6.6,9.5,16.5,7.4c4.8-1,2.5-5.3,1.2-8.5c-1.3-3.2-7.3-6.3-8.9-7.7"/>
	<path class="st0" d="M543.7,695.7c0,10.5-2,10.9,1.3,15.8c3.5,5.2,5.6,9.7,15,17c13.3,9.2,36.1,21.7,38,25c1.7,3.9-0.4,4.7-2.9,2.7
		"/>
	<path class="st0" d="M590.3,774.1c1.7,1.6,7.4-0.7,5.2-3.4c-2.2-2.6-5.3-4.1-8-6.4"/>
	<path class="st0" d="M592.4,768.2c4.3,2.5,6.4,2.5,6.1-0.9c-0.3-3.3-4.6-5.3-8.5-8.6"/>
	<path class="st0" d="M597.2,764.7c3.4,1.1,1.4-4.9,1.5-4.6c-0.7-1.5-1.1-1.6-2.5-2.6c-1.9-1.4-3.2-4-5.5-4.6"/>
	<path class="st0" d="M489.5,672.4c2,16,9.5,20,8.6,31.9c-0.4,6.2-12.7,11.1-17.4,16c-5.3,5.5-4.8,6.3-7.4,14.8
		c-2,6.8-7.1,21.4-13.8,24.7c-6,2.9-7.8,4.4-11,6.3c-1.4,0.8-1.9,3.4-3.8,5.6c-3,3.3-7.8,3.7-12.4,2.1c-3.7-1.3-3.3-4.9-2.3-7
		c2.4-5.3,8.1-6,10.5-8c1.3-1.3,4.4-5.4,5.7-7.1"/>
	<path class="st0" d="M460.9,669.3c2.1,9.7,5.2,15.2,5.2,20.8c0,8.6-6.1,9.6-10.4,16.9c-3.1,5.1-9.9,15.3-13.8,19.7
		c-5.2,5.9-6.1,7.6-11.5,13.3c-4.3,4.7-7.9,4.6-8.6,9c0.5,1.4,2.5,1.1,4.6-0.1"/>
	<path class="st0" d="M435,761.6c-2.4,1.8-7.1,4.6-8,1.1c-0.6-3.4,9.1-9.1,11-10.8"/>
	<path class="st0" d="M430,757.8c-3.3,2.7-6.1,1.1-5.1-1.5c1.3-3.2,6.1-5.4,9-7.1"/>
	<path class="st0" d="M426.1,754.7c-2.6,0.6-4.6,0.7-3.4-1.9c1.1-2.6,5.3-5.3,7.8-6.8"/>
	<g>
		<rect x="248.1" y="112" class="st1" width="453" height="165"/>
		<g>
			<path d="M701.3,277.2l-56.8,0.5l-56.6,0.3l-28.3,0.1l-28.3,0.1l-56.6,0.1c-18.9,0.1-37.7,0-56.6,0l-28.3,0l-28.3-0.1l-56.6-0.3
				l-28.3-0.2l-28.3-0.1l-0.5,0l0-0.5l0.1-41.2l-0.1-41.2l-0.1-41.2l-0.2-41.2l0-0.8l0.8,0l113.2-0.5l113.2-0.2l113.2,0
				c37.7,0,75.5,0.2,113.2,0.3l1.2,0l0,1.2l-0.4,82.5L701.3,277.2z M701,276.9l-0.6-82.3l-0.4-82.5l1.2,1.2
				c-37.7,0.1-75.5,0.3-113.2,0.3l-113.2,0l-113.2-0.2l-113.2-0.5l0.8-0.8l-0.2,41.2l-0.1,41.2l-0.1,41.2l0.1,41.2l-0.5-0.5
				l28.3-0.1l28.3-0.2l56.6-0.3l28.3-0.1l28.3,0c18.9,0,37.7-0.1,56.6,0l56.6,0.1l28.3,0.1l28.3,0.1l56.6,0.3L701,276.9z"/>
		</g>
	</g>
	<rect x="323.1" y="147.1" class="st2" width="303" height="187.5"/>
	<text transform="matrix(1 0 0 1 355.3481 171.8135)" class="st3 st4">Click to begin </text>
	<text transform="matrix(1 0 0 1 323.7791 205.8135)" class="st3 st4">scrolling through </text>
	<text transform="matrix(1 0 0 1 387.6001 239.8135)" class="st3 st4">our styles!</text>
</g>
<g id="Layer_3">
	<g>
		<path d="M617.4,234.6c-1.7-2.9-3.3-5.8-5.1-8.5c-1.3-2.8-3.1-5.5-5.5-6.9c-1.2-0.7-2.5-1.1-4-1.1c-0.7,0-1.4,0.1-2.1,0.2
			c-0.7,0.1-1.5,0.3-2.1,0.6c-1.3,0.5-2.5,1.3-3.5,2.3c-0.9,1-1.6,2.3-2.1,3.7c-0.9,2.8-1,6-0.8,9.2c0.2,3.2,0.6,6.4,1.2,9.6
			c0.5,3.2,1.2,6.4,1.6,9.7c0,1.7,0,3.4-0.1,5.1c-0.1,1.7-0.3,3.4-0.9,5c0-1.7-0.3-3.3-0.7-4.9c-0.4-1.6-0.8-3.2-1.2-4.7l-1.7-9.7
			c-0.5-3.3-1-6.6-1.2-9.9c-0.2-3.4-0.1-6.9,1-10.3c0.5-1.7,1.4-3.4,2.7-4.8c1.3-1.4,2.9-2.5,4.6-3.1c0.9-0.3,1.8-0.6,2.6-0.7
			c0.9-0.2,1.8-0.3,2.8-0.3c1.9,0,3.8,0.5,5.4,1.5c1.6,1,3,2.3,4,3.7c1.1,1.4,1.9,2.9,2.7,4.4C616.3,228,616.9,231.3,617.4,234.6z"
			/>
	</g>
	<g>
		<path d="M615.9,235.8c2.6-2.6,4.9-5.4,7.9-7.8c0.7-0.6,1.5-1.2,2.3-1.7c0.8-0.5,1.7-1,2.7-1.2c1-0.3,2.1-0.5,3.2-0.4
			c1.2,0.1,2.2,0.4,3.2,0.8c2,0.9,3.5,2.3,4.8,3.8c1.3,1.6,2.2,3.3,3,5.1c0.7,1.8,1.2,3.7,1.5,5.6c0.3,1.9,0.3,4-0.2,6l0,0.1l0,0.1
			c-1,2.8-2.8,5.3-4.9,7.2c-2.1,2-4.5,3.5-7,4.7c-5,2.5-10.3,4.1-15.6,5.5c-5.3,1.3-10.6,2.3-16,3.3c-0.7,0.1-1.3,0.2-2,0.4
			c-0.7,0.1-1.3,0.1-2,0.2l-4.1,0.3c-2.7,0.2-5.4,0.4-8.1,0.7c2.5-1,5.1-1.8,7.8-2.6l3.9-1.1c0.7-0.2,1.3-0.4,2-0.5
			c0.7-0.1,1.3-0.2,2-0.3c5.3-0.9,10.6-1.9,15.8-3.2c5.2-1.3,10.3-2.9,14.9-5.2c2.3-1.2,4.5-2.6,6.4-4.3c1.9-1.7,3.3-3.7,4.1-6
			l0,0.1c0.4-1.5,0.4-3.2,0.1-4.9c-0.2-1.7-0.7-3.3-1.3-4.9c-1.3-3.1-3.4-6.1-6.2-7.3c-1.4-0.6-2.8-0.7-4.3-0.2l-2.3,0.9
			c-0.8,0.3-1.6,0.7-2.4,1.1C622,231.6,619.1,233.9,615.9,235.8z"/>
	</g>
</g>
<g id="Layer_2">
	<path class="st5" d="M377.1-4c-1.2,3.8-6.8,15.7-8.6,19.3C358.3,35.2,359,51.2,354,72.8c-4.8,20.7-15,47.4-20.5,68
		c-4.1,15.6-8.6,29.9-11,46c-2,13.6-5.8,27.3-4.1,40.9c0.9,7,6.1,12.5,6.9,19.2c0.3,2.6,1,5.7,1.3,8.4c0.3,2.8,1.9,6.4,2,9
		c0.2,5.9,2.8,10-2.7,11.1c-2.8,0.6-5-3.8-6.8-9c-0.9-2.6-0.1-5.1-0.9-7.6c-0.8-2.9-2.2-6.4-3-7.9l0.2,0c-0.1,1.7-0.6,9.2-0.6,10.9
		c0,1.4-0.2,2.6-0.3,3.9c-0.3,2.6-0.7,5.2-1.1,7.8c-0.8,4.5-1.3,11.4-3.4,15.5c-0.7,1.4-2.7,0.8-4.4,0.1c-2.7-1.2,2.1-23.5,2.5-25.7
		c-0.8,4.4-1.9,10.5-2.7,14.9c-0.6,3.1-1.2,6.1-1.8,9.1c-0.4,2.2-1,3.8-2,4.8c-1,1-2.4,0-3.9-0.5c-1.6-0.5-2.3-0.9-2.3-2.4
		c-0.3-4.2,3.1-21.9,3.9-26l0-0.1c0,2.4-0.8,5-1.2,7.3c-0.4,1.9-0.7,3.9-1.1,5.8c-0.7,3.1-1.7,8.3-3.5,10.8c-0.9,1.1-1.6,1.1-3,0.6
		c-1.5-0.6-2.1-0.9-2.4-2.4c-0.5-3.2,2.7-19.2,3.3-22.4c0.2,1-2.7,12.6-4.6,18.7c-0.7,2.2-3.6,0.6-4.5-0.7c-0.8-1.2,0.2-7.9,0.3-9.2
		c1-9.6,2.4-14.2,3-23.9c0.3-5.1,7-14,7.4-19.1c4.5-52.9,5.8-95,18.2-150.9c2.6-11.5,1.6-11.4,5-20.8c5.6-15.5,10.1-31.5,14.2-47.5
		c0.8-2.9,1.6-11.3,3.4-13.7C334.1-4,372.6-3.9,377.1-4z"/>
	<path class="st5" d="M579.2-4c1.2,3.8,6.8,15.7,8.6,19.3c10.2,19.9,9.5,35.9,14.5,57.5c4.8,20.7,15,47.4,20.5,68
		c4.1,15.6,8.6,29.9,11,46c2,13.6,5.4,24.8,4.7,38.6c-0.2,3.3-6.3,12.8-6.8,20.2c-0.1,1.3,0.3,4.3,0.1,6.8c-0.2,1.8-0.4,4.4-0.6,6.5
		c-0.3,2.8,0.2,7.8,0.6,10.3c0.7,5.7,1.3,7.2,3.6,6.5c3-1,3.4-3.6,3.9-9.9c0.2-2.7,0.2-4,0.6-6.6c0.5-3.2,0.4-6.8,1.1-8.2l-0.2,0
		c0.1,1.7,0.6,9.2,0.6,10.9c0,1.4,0.2,2.6,0.3,3.9c0.3,2.6,0.7,5.2,1.1,7.8c0.8,4.5,1.3,11.4,3.4,15.5c0.7,1.4,2.7,0.8,4.4,0.1
		c2.7-1.2-2.1-23.5-2.5-25.7c0.8,4.4,1.9,10.5,2.7,14.9c0.6,3.1,1.2,6.1,1.8,9.1c0.4,2.2,1,3.8,2,4.8c1,1,2.4,0,3.9-0.5
		c1.6-0.5,2.3-0.9,2.3-2.4c0.3-4.2-3.1-21.9-3.9-26l0-0.1c0,2.4,0.8,5,1.2,7.3c0.4,1.9,0.7,3.9,1.1,5.8c0.7,3.1,1.7,8.3,3.5,10.8
		c0.9,1.1,1.7,1.1,3,0.6c1.5-0.6,2.1-0.9,2.4-2.4c0.5-3.2-2.7-19.2-3.3-22.4c-0.2,1,2.7,12.6,4.6,18.7c0.7,2.2,3.6,0.6,4.5-0.7
		c0.8-1.2-0.2-7.9-0.3-9.2c-1-9.6-2.4-14.2-3-23.9c-0.3-5.1-7-14-7.4-19.1c-4.5-52.9-5.8-95-18.2-150.9c-2.6-11.5-1.6-11.4-5-20.8
		c-5.6-15.5-10.1-31.5-14.2-47.5c-0.8-2.9-1.6-11.3-3.4-13.7C622.1-4,583.6-3.9,579.2-4z"/>
	<polygon class="st6" points="375.7,-1.7 334,-2.2 335.3,-6.8 378,-7 	"/>
	<polygon class="st6" points="622.1,-2.8 580.6,-2 578.8,-5.8 621.1,-5.9 	"/>
</g>
</svg>
